<mxfile host="app.diagrams.net" modified="2024-03-21T19:04:49.096Z" agent="Mozilla/5.0 (Windows NT 10.0; Win64; x64) AppleWebKit/537.36 (KHTML, like Gecko) Chrome/122.0.0.0 Safari/537.36" etag="N1mCeY8mwwZZkJGC7FEs" version="24.0.6" type="device">
  <diagram name="Page-1" id="9T2Wyxx9o18ZRonSXm-7">
    <mxGraphModel dx="1434" dy="780" grid="1" gridSize="10" guides="1" tooltips="1" connect="1" arrows="1" fold="1" page="1" pageScale="1" pageWidth="827" pageHeight="1169" math="0" shadow="0">
      <root>
        <mxCell id="0" />
        <mxCell id="1" parent="0" />
        <mxCell id="qNxySR5nrvwbr0C1Yesd-27" value="" style="endArrow=none;dashed=1;html=1;rounded=0;strokeWidth=3;strokeColor=#B3B3B3;" edge="1" parent="1">
          <mxGeometry width="50" height="50" relative="1" as="geometry">
            <mxPoint x="20" y="100" as="sourcePoint" />
            <mxPoint x="440" y="100" as="targetPoint" />
          </mxGeometry>
        </mxCell>
        <mxCell id="qNxySR5nrvwbr0C1Yesd-1" value="" style="ellipse;whiteSpace=wrap;html=1;fillColor=#d5e8d4;strokeColor=#82b366;" vertex="1" parent="1">
          <mxGeometry x="120" y="120" width="20" height="20" as="geometry" />
        </mxCell>
        <mxCell id="qNxySR5nrvwbr0C1Yesd-2" value="Commit 1" style="text;html=1;align=center;verticalAlign=middle;resizable=0;points=[];autosize=1;strokeColor=none;fillColor=none;" vertex="1" parent="1">
          <mxGeometry x="95" y="140" width="70" height="30" as="geometry" />
        </mxCell>
        <mxCell id="qNxySR5nrvwbr0C1Yesd-4" value="" style="ellipse;whiteSpace=wrap;html=1;fillColor=#d5e8d4;strokeColor=#82b366;" vertex="1" parent="1">
          <mxGeometry x="190" y="120" width="20" height="20" as="geometry" />
        </mxCell>
        <mxCell id="qNxySR5nrvwbr0C1Yesd-5" value="Commit 2" style="text;html=1;align=center;verticalAlign=middle;resizable=0;points=[];autosize=1;strokeColor=none;fillColor=none;" vertex="1" parent="1">
          <mxGeometry x="165" y="140" width="70" height="30" as="geometry" />
        </mxCell>
        <mxCell id="qNxySR5nrvwbr0C1Yesd-24" style="edgeStyle=orthogonalEdgeStyle;rounded=0;orthogonalLoop=1;jettySize=auto;html=1;exitX=1;exitY=0.5;exitDx=0;exitDy=0;entryX=0;entryY=0.5;entryDx=0;entryDy=0;" edge="1" parent="1" source="qNxySR5nrvwbr0C1Yesd-6" target="qNxySR5nrvwbr0C1Yesd-19">
          <mxGeometry relative="1" as="geometry" />
        </mxCell>
        <mxCell id="qNxySR5nrvwbr0C1Yesd-6" value="" style="ellipse;whiteSpace=wrap;html=1;fillColor=#d5e8d4;strokeColor=#82b366;" vertex="1" parent="1">
          <mxGeometry x="260" y="120" width="20" height="20" as="geometry" />
        </mxCell>
        <mxCell id="qNxySR5nrvwbr0C1Yesd-7" value="Commit 3" style="text;html=1;align=center;verticalAlign=middle;resizable=0;points=[];autosize=1;strokeColor=none;fillColor=none;" vertex="1" parent="1">
          <mxGeometry x="235" y="140" width="70" height="30" as="geometry" />
        </mxCell>
        <mxCell id="qNxySR5nrvwbr0C1Yesd-8" value="&lt;font style=&quot;font-size: 14px;&quot;&gt;&lt;b&gt;main&lt;/b&gt;&lt;/font&gt;" style="text;html=1;align=center;verticalAlign=middle;whiteSpace=wrap;rounded=0;" vertex="1" parent="1">
          <mxGeometry x="30" y="115" width="60" height="30" as="geometry" />
        </mxCell>
        <mxCell id="qNxySR5nrvwbr0C1Yesd-9" value="&lt;font style=&quot;font-size: 14px;&quot;&gt;&lt;b&gt;branche de fonctionnalitÃ©&lt;/b&gt;&lt;/font&gt;" style="text;html=1;align=center;verticalAlign=middle;resizable=0;points=[];autosize=1;strokeColor=none;fillColor=none;" vertex="1" parent="1">
          <mxGeometry x="30" y="55" width="190" height="30" as="geometry" />
        </mxCell>
        <mxCell id="qNxySR5nrvwbr0C1Yesd-10" value="" style="endArrow=classic;html=1;rounded=0;exitX=1;exitY=0.5;exitDx=0;exitDy=0;entryX=0;entryY=0.5;entryDx=0;entryDy=0;endFill=1;" edge="1" parent="1" source="qNxySR5nrvwbr0C1Yesd-1" target="qNxySR5nrvwbr0C1Yesd-4">
          <mxGeometry width="50" height="50" relative="1" as="geometry">
            <mxPoint x="390" y="430" as="sourcePoint" />
            <mxPoint x="440" y="380" as="targetPoint" />
          </mxGeometry>
        </mxCell>
        <mxCell id="qNxySR5nrvwbr0C1Yesd-11" value="" style="endArrow=classic;html=1;rounded=0;exitX=1;exitY=0.5;exitDx=0;exitDy=0;entryX=0;entryY=0.5;entryDx=0;entryDy=0;endFill=1;" edge="1" parent="1" source="qNxySR5nrvwbr0C1Yesd-4" target="qNxySR5nrvwbr0C1Yesd-6">
          <mxGeometry width="50" height="50" relative="1" as="geometry">
            <mxPoint x="150" y="140" as="sourcePoint" />
            <mxPoint x="200" y="140" as="targetPoint" />
          </mxGeometry>
        </mxCell>
        <mxCell id="qNxySR5nrvwbr0C1Yesd-18" style="edgeStyle=orthogonalEdgeStyle;rounded=0;orthogonalLoop=1;jettySize=auto;html=1;exitX=1;exitY=0.5;exitDx=0;exitDy=0;entryX=0;entryY=0.5;entryDx=0;entryDy=0;endArrow=classic;endFill=1;" edge="1" parent="1" source="qNxySR5nrvwbr0C1Yesd-12" target="qNxySR5nrvwbr0C1Yesd-15">
          <mxGeometry relative="1" as="geometry" />
        </mxCell>
        <mxCell id="qNxySR5nrvwbr0C1Yesd-12" value="" style="ellipse;whiteSpace=wrap;html=1;fillColor=#f8cecc;strokeColor=#b85450;" vertex="1" parent="1">
          <mxGeometry x="280" y="60" width="20" height="20" as="geometry" />
        </mxCell>
        <mxCell id="qNxySR5nrvwbr0C1Yesd-13" value="Commit 1" style="text;html=1;align=center;verticalAlign=middle;resizable=0;points=[];autosize=1;strokeColor=none;fillColor=none;" vertex="1" parent="1">
          <mxGeometry x="255" y="30" width="70" height="30" as="geometry" />
        </mxCell>
        <mxCell id="qNxySR5nrvwbr0C1Yesd-15" value="" style="ellipse;whiteSpace=wrap;html=1;fillColor=#f8cecc;strokeColor=#b85450;" vertex="1" parent="1">
          <mxGeometry x="350" y="60" width="20" height="20" as="geometry" />
        </mxCell>
        <mxCell id="qNxySR5nrvwbr0C1Yesd-16" value="Commit 2" style="text;html=1;align=center;verticalAlign=middle;resizable=0;points=[];autosize=1;strokeColor=none;fillColor=none;" vertex="1" parent="1">
          <mxGeometry x="325" y="30" width="70" height="30" as="geometry" />
        </mxCell>
        <mxCell id="qNxySR5nrvwbr0C1Yesd-17" value="" style="endArrow=classic;html=1;rounded=0;exitX=0.5;exitY=0;exitDx=0;exitDy=0;entryX=0.5;entryY=1;entryDx=0;entryDy=0;endFill=1;" edge="1" parent="1" source="qNxySR5nrvwbr0C1Yesd-6" target="qNxySR5nrvwbr0C1Yesd-12">
          <mxGeometry width="50" height="50" relative="1" as="geometry">
            <mxPoint x="420" y="150" as="sourcePoint" />
            <mxPoint x="470" y="100" as="targetPoint" />
          </mxGeometry>
        </mxCell>
        <mxCell id="qNxySR5nrvwbr0C1Yesd-19" value="" style="ellipse;whiteSpace=wrap;html=1;fillColor=#d5e8d4;strokeColor=#82b366;" vertex="1" parent="1">
          <mxGeometry x="380" y="120" width="20" height="20" as="geometry" />
        </mxCell>
        <mxCell id="qNxySR5nrvwbr0C1Yesd-20" value="Commit 4" style="text;html=1;align=center;verticalAlign=middle;resizable=0;points=[];autosize=1;strokeColor=none;fillColor=none;" vertex="1" parent="1">
          <mxGeometry x="355" y="140" width="70" height="30" as="geometry" />
        </mxCell>
        <mxCell id="qNxySR5nrvwbr0C1Yesd-23" style="rounded=0;orthogonalLoop=1;jettySize=auto;html=1;exitX=0.5;exitY=1;exitDx=0;exitDy=0;entryX=0.5;entryY=0;entryDx=0;entryDy=0;" edge="1" parent="1" source="qNxySR5nrvwbr0C1Yesd-15" target="qNxySR5nrvwbr0C1Yesd-19">
          <mxGeometry relative="1" as="geometry" />
        </mxCell>
        <mxCell id="qNxySR5nrvwbr0C1Yesd-25" style="edgeStyle=orthogonalEdgeStyle;rounded=0;orthogonalLoop=1;jettySize=auto;html=1;exitX=1;exitY=0.5;exitDx=0;exitDy=0;entryX=0.914;entryY=-0.333;entryDx=0;entryDy=0;entryPerimeter=0;" edge="1" parent="1" source="qNxySR5nrvwbr0C1Yesd-19" target="qNxySR5nrvwbr0C1Yesd-20">
          <mxGeometry relative="1" as="geometry" />
        </mxCell>
        <mxCell id="qNxySR5nrvwbr0C1Yesd-26" value="" style="endArrow=classic;html=1;rounded=0;entryX=0;entryY=0.5;entryDx=0;entryDy=0;exitX=0.057;exitY=-0.333;exitDx=0;exitDy=0;exitPerimeter=0;" edge="1" parent="1" source="qNxySR5nrvwbr0C1Yesd-2" target="qNxySR5nrvwbr0C1Yesd-1">
          <mxGeometry width="50" height="50" relative="1" as="geometry">
            <mxPoint x="170" y="270" as="sourcePoint" />
            <mxPoint x="220" y="220" as="targetPoint" />
          </mxGeometry>
        </mxCell>
      </root>
    </mxGraphModel>
  </diagram>
</mxfile>
